M48
;GenerationSoftware,Autodesk,EAGLE,9.4.2*%
;CreationDate,2019-11-15T21:47:38Z*%
FMAT,2
ICI,OFF
METRIC,TZ,000.000
T6C0.914
T5C1.000
T4C1.016
T3C1.200
T2C2.500
T1C3.200
%
G90
M71
T1
X96520Y48260
X15240Y96520
X13970Y48260
X66040Y81280
X66040Y53340
X90170Y96520
T2
X8220Y6090
X83220Y6090
X8220Y37090
X83220Y37090
T3
X101520Y20470
X91520Y20470
X96520Y20470
T4
X76772Y73470
X117221Y52832
X105664Y41275
X17336Y23939
X4953Y49530
X43751Y59436
X43751Y56959
X141161Y50355
X60261Y28892
X14859Y26416
X29718Y78423
X58610Y78423
X141161Y53657
X88328Y36322
X139510Y47879
X108140Y29718
X30543Y17336
X29718Y75121
X52832Y75121
X101536Y63563
X37973Y54483
X73470Y59436
X37148Y28892
X9081Y42101
X24765Y76772
X108140Y58610
X150241Y28067
X73470Y70168
X54483Y70168
X27241Y74295
X11557Y45402
X99060Y27241
X76200Y48260
X78740Y48260
X81280Y48260
X83820Y48260
X86360Y48260
X88900Y48260
X91440Y48260
X73660Y48260
X71120Y96520
X73660Y96520
X76200Y96520
X78740Y96520
X81280Y96520
X83820Y96520
X86360Y96520
X68580Y96520
X53340Y48260
X55880Y48260
X58420Y48260
X60960Y48260
X63500Y48260
X66040Y48260
X68580Y48260
X50800Y48260
X48260Y96520
X50800Y96520
X53340Y96520
X55880Y96520
X58420Y96520
X60960Y96520
X63500Y96520
X45720Y96520
X26416Y96520
X28956Y96520
X31496Y96520
X34036Y96520
X36576Y96520
X39116Y96520
X41656Y96520
X23876Y96520
X96520Y76200
X93980Y76200
X96520Y78740
X93980Y78740
X96520Y81280
X93980Y81280
X96520Y83820
X93980Y83820
X96520Y86360
X93980Y86360
X96520Y88900
X93980Y88900
X96520Y91440
X93980Y91440
X96520Y93980
X93980Y93980
X96520Y55880
X93980Y55880
X96520Y58420
X93980Y58420
X96520Y60960
X93980Y60960
X96520Y63500
X93980Y63500
X96520Y66040
X93980Y66040
X96520Y68580
X93980Y68580
X96520Y71120
X93980Y71120
X96520Y73660
X93980Y73660
X93980Y53340
X96520Y53340
X93980Y96520
X96520Y96520
X33020Y48260
X35560Y48260
X38100Y48260
X40640Y48260
X43180Y48260
X45720Y48260
X134620Y59690
X132080Y59690
X129540Y59690
X127000Y59690
X141161Y23114
X121920Y59690
X135890Y90170
X138430Y90170
X140970Y90170
X143510Y90170
X146050Y90170
X109220Y90170
X111760Y90170
X114300Y90170
X116840Y90170
X119380Y90170
X109220Y74930
X111760Y74930
X114300Y74930
X116840Y74930
X119380Y74930
X135890Y74930
X138430Y74930
X140970Y74930
X143510Y74930
X146050Y74930
X2477Y44577
X37973Y56959
X124460Y59690
X117551Y20599
X117551Y25121
X111049Y20599
X111049Y25121
X131521Y20599
X131521Y25121
X125019Y20599
X125019Y25121
X144221Y20599
X144221Y25121
X137719Y20599
X137719Y25121
X156921Y20599
X156921Y25121
X150419Y20599
X150419Y25121
T5
X46740Y37090
X49280Y37090
X51820Y37090
X13720Y37090
X16260Y37090
X18800Y37090
X21340Y37090
X23880Y37090
X26420Y37090
X28960Y37090
X31500Y37090
X34040Y37090
X36580Y37090
X39120Y37090
X41660Y37090
X44200Y37090
T6
X97790Y39370
X110490Y39370
X114300Y39370
X127000Y39370
X142240Y39370
X129540Y39370
X146050Y39370
X158750Y39370
M30