G04 EAGLE Gerber RS-274X export*
G75*
%MOMM*%
%FSLAX34Y34*%
%LPD*%
%INBottom Copper*%
%IPPOS*%
%AMOC8*
5,1,8,0,0,1.08239X$1,22.5*%
G01*
%ADD10C,1.879600*%
%ADD11P,2.034460X8X112.500000*%
%ADD12C,1.676400*%
%ADD13C,1.524000*%
%ADD14C,1.800000*%
%ADD15P,1.539592X8X22.500000*%
%ADD16P,1.539592X8X202.500000*%
%ADD17C,0.889000*%
%ADD18C,1.524000*%


D10*
X762000Y482600D03*
X787400Y482600D03*
X812800Y482600D03*
X838200Y482600D03*
X863600Y482600D03*
X889000Y482600D03*
X914400Y482600D03*
X736600Y482600D03*
X711200Y965200D03*
X736600Y965200D03*
X762000Y965200D03*
X787400Y965200D03*
X812800Y965200D03*
X838200Y965200D03*
X863600Y965200D03*
X685800Y965200D03*
X533400Y482600D03*
X558800Y482600D03*
X584200Y482600D03*
X609600Y482600D03*
X635000Y482600D03*
X660400Y482600D03*
X685800Y482600D03*
X508000Y482600D03*
X482600Y965200D03*
X508000Y965200D03*
X533400Y965200D03*
X558800Y965200D03*
X584200Y965200D03*
X609600Y965200D03*
X635000Y965200D03*
X457200Y965200D03*
X264160Y965200D03*
X289560Y965200D03*
X314960Y965200D03*
X340360Y965200D03*
X365760Y965200D03*
X391160Y965200D03*
X416560Y965200D03*
X238760Y965200D03*
D11*
X965200Y762000D03*
X939800Y762000D03*
X965200Y787400D03*
X939800Y787400D03*
X965200Y812800D03*
X939800Y812800D03*
X965200Y838200D03*
X939800Y838200D03*
X965200Y863600D03*
X939800Y863600D03*
X965200Y889000D03*
X939800Y889000D03*
X965200Y914400D03*
X939800Y914400D03*
X965200Y939800D03*
X939800Y939800D03*
X965200Y558800D03*
X939800Y558800D03*
X965200Y584200D03*
X939800Y584200D03*
X965200Y609600D03*
X939800Y609600D03*
X965200Y635000D03*
X939800Y635000D03*
X965200Y660400D03*
X939800Y660400D03*
X965200Y685800D03*
X939800Y685800D03*
X965200Y711200D03*
X939800Y711200D03*
X965200Y736600D03*
X939800Y736600D03*
D10*
X939800Y533400D03*
X965200Y533400D03*
X939800Y965200D03*
X965200Y965200D03*
X330200Y482600D03*
X355600Y482600D03*
X381000Y482600D03*
X406400Y482600D03*
X431800Y482600D03*
X457200Y482600D03*
D12*
X137200Y370900D03*
X162600Y370900D03*
X188000Y370900D03*
X213400Y370900D03*
X238800Y370900D03*
X264200Y370900D03*
X289600Y370900D03*
X315000Y370900D03*
X340400Y370900D03*
X365800Y370900D03*
X391200Y370900D03*
X416600Y370900D03*
X442000Y370900D03*
X467400Y370900D03*
X492800Y370900D03*
X518200Y370900D03*
D13*
X1346200Y589280D02*
X1346200Y604520D01*
X1320800Y604520D02*
X1320800Y589280D01*
X1295400Y589280D02*
X1295400Y604520D01*
X1270000Y604520D02*
X1270000Y589280D01*
X1244600Y589280D02*
X1244600Y604520D01*
X1219200Y604520D02*
X1219200Y589280D01*
X1358900Y894080D02*
X1358900Y909320D01*
X1384300Y909320D02*
X1384300Y894080D01*
X1409700Y894080D02*
X1409700Y909320D01*
X1435100Y909320D02*
X1435100Y894080D01*
X1460500Y894080D02*
X1460500Y909320D01*
X1092200Y909320D02*
X1092200Y894080D01*
X1117600Y894080D02*
X1117600Y909320D01*
X1143000Y909320D02*
X1143000Y894080D01*
X1168400Y894080D02*
X1168400Y909320D01*
X1193800Y909320D02*
X1193800Y894080D01*
X1092200Y756920D02*
X1092200Y741680D01*
X1117600Y741680D02*
X1117600Y756920D01*
X1143000Y756920D02*
X1143000Y741680D01*
X1168400Y741680D02*
X1168400Y756920D01*
X1193800Y756920D02*
X1193800Y741680D01*
X1358900Y741680D02*
X1358900Y756920D01*
X1384300Y756920D02*
X1384300Y741680D01*
X1409700Y741680D02*
X1409700Y756920D01*
X1435100Y756920D02*
X1435100Y741680D01*
X1460500Y741680D02*
X1460500Y756920D01*
D14*
X915200Y213700D02*
X915200Y195700D01*
X965200Y195700D02*
X965200Y213700D01*
X1015200Y213700D02*
X1015200Y195700D01*
D15*
X977900Y393700D03*
X1104900Y393700D03*
X1143000Y393700D03*
X1270000Y393700D03*
D16*
X1422400Y393700D03*
X1295400Y393700D03*
D15*
X1460500Y393700D03*
X1587500Y393700D03*
D13*
X1183132Y205994D02*
X1167892Y205994D01*
X1167892Y251206D02*
X1183132Y251206D01*
X1118108Y205994D02*
X1102868Y205994D01*
X1102868Y251206D02*
X1118108Y251206D01*
X1307592Y205994D02*
X1322832Y205994D01*
X1322832Y251206D02*
X1307592Y251206D01*
X1257808Y205994D02*
X1242568Y205994D01*
X1242568Y251206D02*
X1257808Y251206D01*
X1434592Y205994D02*
X1449832Y205994D01*
X1449832Y251206D02*
X1434592Y251206D01*
X1384808Y205994D02*
X1369568Y205994D01*
X1369568Y251206D02*
X1384808Y251206D01*
X1561592Y205994D02*
X1576832Y205994D01*
X1576832Y251206D02*
X1561592Y251206D01*
X1511808Y205994D02*
X1496568Y205994D01*
X1496568Y251206D02*
X1511808Y251206D01*
D17*
X1320800Y899795D02*
X1196975Y899795D01*
X1320800Y899795D02*
X1436370Y784225D01*
X1461135Y784225D01*
X1485900Y759460D01*
X1485900Y338455D01*
X1411605Y264160D01*
X1411605Y231140D01*
X49530Y470535D02*
X24765Y445770D01*
X49530Y470535D02*
X57785Y470535D01*
X156845Y569595D01*
X379730Y569595D01*
X767715Y734695D02*
X875030Y734695D01*
X924560Y784225D01*
X932815Y784225D01*
X1193800Y901700D02*
X1196975Y899795D01*
X939800Y787400D02*
X932815Y784225D01*
D18*
X1411605Y231140D03*
X24765Y445770D03*
X379730Y569595D03*
X767715Y734695D03*
D17*
X1188720Y742950D02*
X1188720Y627380D01*
X1172210Y610870D01*
X1172210Y528320D01*
X1056640Y412750D02*
X883285Y239395D01*
X173355Y239395D01*
X49530Y495300D02*
X148590Y594360D01*
X437515Y594360D01*
X1188720Y742950D02*
X1193800Y749300D01*
D18*
X1172210Y528320D03*
X1056640Y412750D03*
X173355Y239395D03*
X49530Y495300D03*
X437515Y594360D03*
D17*
X1163955Y701675D02*
X1163955Y742950D01*
X1163955Y701675D02*
X1040130Y577850D01*
X1040130Y487045D01*
X866775Y313690D01*
X165100Y313690D01*
X115570Y363220D01*
X115570Y379730D01*
X255905Y520065D01*
X387985Y520065D01*
X437515Y569595D01*
X1163955Y742950D02*
X1168400Y749300D01*
D18*
X437515Y569595D03*
D17*
X1139190Y701675D02*
X1139190Y742950D01*
X1139190Y701675D02*
X1023620Y586105D01*
X1023620Y495300D01*
X974090Y445770D01*
X742950Y445770D01*
X709930Y478790D01*
X709930Y709930D01*
X808990Y808990D01*
X932815Y808990D01*
X1139190Y742950D02*
X1143000Y749300D01*
X939800Y812800D02*
X932815Y808990D01*
X1461135Y742950D02*
X1461135Y553085D01*
X1411605Y503555D01*
X602615Y288925D02*
X404495Y288925D01*
X379730Y264160D01*
X148590Y264160D01*
X297180Y784225D02*
X586105Y784225D01*
X1460500Y749300D02*
X1461135Y742950D01*
D18*
X1411605Y503555D03*
X602615Y288925D03*
X148590Y264160D03*
X297180Y784225D03*
X586105Y784225D03*
D17*
X1436370Y742950D02*
X1436370Y561340D01*
X1411605Y536575D01*
X883285Y363220D02*
X817245Y429260D01*
X528320Y429260D01*
X478790Y478790D01*
X478790Y503555D01*
X908050Y932815D01*
X924560Y932815D01*
X932815Y941070D01*
X1435100Y749300D02*
X1436370Y742950D01*
X939800Y939800D02*
X932815Y941070D01*
D18*
X1411605Y536575D03*
X883285Y363220D03*
D17*
X1411605Y569595D02*
X1411605Y742950D01*
X1411605Y569595D02*
X1386840Y544830D01*
X1386840Y487045D01*
X1395095Y478790D01*
X1081405Y297180D02*
X1040130Y255905D01*
X1040130Y189865D01*
X1023620Y173355D01*
X305435Y173355D01*
X297180Y751205D02*
X528320Y751205D01*
X1409700Y749300D02*
X1411605Y742950D01*
D18*
X1395095Y478790D03*
X1081405Y297180D03*
X305435Y173355D03*
X297180Y751205D03*
X528320Y751205D03*
D17*
X1122680Y784225D02*
X1122680Y899795D01*
X1122680Y784225D02*
X1122680Y751205D01*
X1117600Y749300D01*
X1122680Y899795D02*
X1117600Y901700D01*
X1064895Y965835D02*
X965835Y965835D01*
X1064895Y965835D02*
X1122680Y908050D01*
X965835Y965835D02*
X965200Y965200D01*
X1117600Y901700D02*
X1122680Y908050D01*
X1378585Y767715D02*
X1378585Y751205D01*
X1378585Y767715D02*
X1362075Y784225D01*
X1213485Y784225D02*
X1122680Y784225D01*
X1213485Y784225D02*
X1362075Y784225D01*
X1378585Y751205D02*
X1384300Y749300D01*
X165100Y379730D02*
X165100Y371475D01*
X165100Y379730D02*
X239395Y454025D01*
X363220Y454025D01*
X379730Y470535D01*
X379730Y478790D01*
X165100Y371475D02*
X162600Y370900D01*
X379730Y478790D02*
X381000Y482600D01*
X495300Y363220D02*
X478790Y346710D01*
X181610Y346710D01*
X165100Y363220D01*
X492800Y370900D02*
X495300Y363220D01*
X165100Y363220D02*
X162600Y370900D01*
X1518920Y305435D02*
X1568450Y255905D01*
X1518920Y305435D02*
X1494155Y305435D01*
X1444625Y255905D01*
X1568450Y255905D02*
X1569212Y251206D01*
X1444625Y255905D02*
X1442212Y251206D01*
X1320800Y255905D02*
X1320800Y569595D01*
X1320800Y596900D01*
X1320800Y255905D02*
X1315212Y251206D01*
X1213485Y627380D02*
X1213485Y784225D01*
X1213485Y627380D02*
X1196975Y610870D01*
X1196975Y577850D01*
X1205230Y569595D01*
X1320800Y569595D01*
X173355Y330200D02*
X140335Y363220D01*
X173355Y330200D02*
X487045Y330200D01*
X520065Y363220D01*
X140335Y363220D02*
X137200Y370900D01*
X518200Y370900D02*
X520065Y363220D01*
X239395Y371475D02*
X239395Y379730D01*
X297180Y437515D01*
X371475Y437515D01*
X412750Y478790D01*
X239395Y371475D02*
X238800Y370900D01*
X406400Y482600D02*
X412750Y478790D01*
X264160Y817245D02*
X264160Y965200D01*
X264160Y817245D02*
X222885Y775970D01*
X222885Y759460D01*
X363220Y619125D01*
X445770Y619125D01*
X462280Y602615D01*
X462280Y520065D01*
X429260Y487045D01*
X431800Y482600D01*
X1097915Y751205D02*
X1097915Y899795D01*
X1097915Y751205D02*
X1092200Y749300D01*
X1097915Y899795D02*
X1092200Y901700D01*
X974090Y536575D02*
X965835Y536575D01*
X974090Y536575D02*
X1007110Y569595D01*
X1007110Y594360D01*
X1089660Y676910D01*
X1089660Y742950D01*
X965835Y536575D02*
X965200Y533400D01*
X1089660Y742950D02*
X1092200Y749300D01*
X1007110Y396240D02*
X982345Y396240D01*
X1007110Y396240D02*
X1048385Y437515D01*
X1097915Y437515D01*
X1106170Y429260D02*
X1139190Y396240D01*
X1106170Y429260D02*
X1097915Y437515D01*
X982345Y396240D02*
X977900Y393700D01*
X1139190Y396240D02*
X1143000Y393700D01*
X1015365Y338455D02*
X1015365Y206375D01*
X1015365Y338455D02*
X1106170Y429260D01*
X1015365Y206375D02*
X1015200Y204700D01*
X1362075Y643890D02*
X1362075Y742950D01*
X1362075Y643890D02*
X1386840Y619125D01*
X1386840Y569595D01*
X1370330Y553085D01*
X1370330Y445770D01*
X1422400Y393700D01*
X1362075Y742950D02*
X1358900Y749300D01*
X1015365Y635635D02*
X990600Y610870D01*
X990600Y602615D01*
X974090Y586105D01*
X965835Y586105D01*
X965200Y584200D01*
D18*
X1015365Y635635D03*
D17*
X1246505Y610870D02*
X1246505Y602615D01*
X1246505Y610870D02*
X1263015Y627380D01*
X1353820Y627380D01*
X1370330Y610870D01*
X1370330Y577850D01*
X1345565Y553085D01*
X1345565Y198120D01*
X1296035Y148590D01*
X206375Y148590D01*
X16510Y338455D01*
X16510Y404495D01*
X156845Y544830D01*
X379730Y544830D01*
X734695Y594360D02*
X891540Y594360D01*
X924560Y561340D01*
X932815Y561340D01*
X1244600Y596900D02*
X1246505Y602615D01*
X939800Y558800D02*
X932815Y561340D01*
D18*
X379730Y544830D03*
X734695Y594360D03*
D17*
X371475Y288925D02*
X123825Y288925D01*
X49530Y363220D01*
X49530Y379730D01*
X90805Y421005D01*
X247650Y767715D02*
X421005Y941070D01*
X544830Y941070D01*
X561340Y957580D01*
X558800Y965200D01*
D18*
X371475Y288925D03*
X90805Y421005D03*
X247650Y767715D03*
D17*
X1106170Y387985D02*
X1106170Y288925D01*
X1081405Y264160D01*
X1081405Y231140D01*
X1106170Y206375D01*
X1106170Y387985D02*
X1104900Y393700D01*
X1106170Y206375D02*
X1110488Y205994D01*
X1271270Y272415D02*
X1271270Y387985D01*
X1271270Y272415D02*
X1279525Y264160D01*
X1279525Y239395D02*
X1279525Y231140D01*
X1279525Y239395D02*
X1279525Y264160D01*
X1279525Y231140D02*
X1254760Y206375D01*
X1271270Y387985D02*
X1270000Y393700D01*
X1254760Y206375D02*
X1250188Y205994D01*
X1279525Y239395D02*
X1312545Y206375D01*
X1315212Y205994D01*
X1271270Y396240D02*
X1081405Y586105D01*
X1271270Y396240D02*
X1270000Y393700D01*
D18*
X1081405Y586105D03*
D17*
X1502410Y280670D02*
X1510665Y280670D01*
X1535430Y255905D01*
X1535430Y239395D01*
X1527175Y231140D01*
X1469390Y231140D01*
X1444625Y206375D01*
X1442212Y205994D01*
X932815Y610870D02*
X825500Y610870D01*
X734695Y701675D01*
X544830Y701675D02*
X313690Y701675D01*
X272415Y742950D01*
X115570Y454025D02*
X90805Y454025D01*
X33020Y396240D01*
X33020Y346710D01*
X165100Y214630D01*
X883285Y214630D01*
X941070Y272415D01*
X990600Y272415D01*
X939800Y609600D02*
X932815Y610870D01*
D18*
X1502410Y280670D03*
X734695Y701675D03*
X544830Y701675D03*
X272415Y742950D03*
X115570Y454025D03*
X990600Y272415D03*
M02*
